<svg xmlns="http://www.w3.org/2000/svg" width="18" height="18" viewBox="0 0 18 18">
  <defs>
    <style>
      .cls-1 {
        fill: #67717c;
        fill-rule: evenodd;
      }
    </style>
  </defs>
  <path class="cls-1" d="M612.775,146a3.441,3.441,0,0,1-1.144-.195,20.285,20.285,0,0,1-12.452-12.8,3.5,3.5,0,0,1,1.2-3.855l1-.768a2.048,2.048,0,0,1,2.981.679l1.777,3.459,0.034,0.32a1.031,1.031,0,0,1-.281.71l-0.346.377a2.446,2.446,0,0,0-.37,2.764,7.179,7.179,0,0,0,3.12,3.122,2.552,2.552,0,0,0,2.762-.37l0.385-.355a1.067,1.067,0,0,1,.712-0.27h0.171l0.283,0.106,3.308,1.7a1.99,1.99,0,0,1,.509,3.176l-1.147,1.167A3.537,3.537,0,0,1,612.775,146Z" transform="translate(-599 -128)"/>
</svg>